<svg xmlns="http://www.w3.org/2000/svg" width="24" height="20" viewBox="0 0 24 20" fill="none">
<path d="M19.864 2H8.834C8.964 1.338 9.193 0.566 9.527 0H5.955C5.633 0.514 5.395 1.157 5.258 2H4.136L1.437 13H22.563L19.864 2ZM5.636 11.003H4.369L4.568 10L5.803 10.003L5.636 11.003ZM5.884 9.514L4.665 9.51L4.863 8.507L6.051 8.514L5.884 9.514ZM6.141 7.98L4.97 7.972L5.168 6.969L6.308 6.979L6.141 7.98ZM7.646 11.003H6.38L6.528 10.003L7.763 10.006L7.646 11.003ZM7.821 9.521L6.601 9.517L6.75 8.517L7.938 8.524L7.821 9.521ZM8 7.992L6.829 7.984L6.978 6.984L8.118 6.995L8 7.992ZM8.157 4.369H5.858C5.656 3.013 5.828 1.463 6.312 0.583H8.561C8.054 1.61 8.005 3.33 8.157 4.369ZM19.472 9.557L18.252 9.553L18.1 8.579L19.288 8.585L19.472 9.557ZM19.191 8.066L18.019 8.058L17.868 7.083L19.008 7.094L19.191 8.066ZM9.95 4H18.386L18.782 6H9.766L9.95 4ZM12.679 8.549L12.687 9.536L11.467 9.532L11.49 8.543L12.679 8.549ZM11.503 8.015L11.526 7.026L12.666 7.036L12.674 8.022L11.503 8.015ZM10.688 11.003H9.422L9.495 10.01L10.73 10.012L10.688 11.003ZM10.75 9.53L9.53 9.526L9.603 8.533L10.791 8.539L10.75 9.53ZM10.814 8.01L9.643 8.002L9.716 7.01L10.856 7.02L10.814 8.01ZM11.433 11.003L11.456 10.014L12.691 10.016L12.699 11.002H11.433V11.003ZM13.293 7.042L14.433 7.052L14.49 8.035L13.319 8.027L13.293 7.042ZM13.333 8.553L14.521 8.559L14.578 9.541L13.359 9.537L13.333 8.553ZM13.396 11.003L13.371 10.018L14.606 10.02L14.663 11.002H13.396V11.003ZM16.101 7.067L17.241 7.078L17.375 8.054L16.204 8.046L16.101 7.067ZM16.258 8.568L17.446 8.574L17.581 9.55L16.361 9.546L16.258 8.568ZM16.411 10.024L19.56 10.03L19.743 11.002H16.514L16.411 10.024ZM0 15V20H24V15H0ZM11 17H13V18H11V17Z" fill="#D24545"/>
</svg>