<svg width="20" height="20" viewBox="0 0 20 20" fill="none" xmlns="http://www.w3.org/2000/svg">
<path d="M10.0029 0.00488281C15.5209 0.00488281 20.0009 4.48488 20.0009 10.0019C20.0009 15.5199 15.5209 19.9999 10.0029 19.9999C4.48586 19.9999 0.00585938 15.5199 0.00585938 10.0019C0.00585938 4.48488 4.48586 0.00488281 10.0029 0.00488281ZM10.0029 1.50488C5.31286 1.50488 1.50586 5.31188 1.50586 10.0019C1.50586 14.6919 5.31286 18.4999 10.0029 18.4999C14.6929 18.4999 18.5009 14.6919 18.5009 10.0019C18.5009 5.31188 14.6929 1.50488 10.0029 1.50488ZM10.0029 8.00488C9.58886 8.00488 9.25286 8.34088 9.25286 8.75488V14.2549C9.25286 14.6689 9.58886 15.0049 10.0029 15.0049C10.4169 15.0049 10.7529 14.6689 10.7529 14.2549V8.75488C10.7529 8.34088 10.4169 8.00488 10.0029 8.00488ZM10.0009 5.00488C10.5529 5.00488 11.0009 5.45288 11.0009 6.00488C11.0009 6.55688 10.5529 7.00488 10.0009 7.00488C9.44886 7.00488 9.00086 6.55688 9.00086 6.00488C9.00086 5.45288 9.44886 5.00488 10.0009 5.00488Z" fill="black"/>
</svg>
