<svg xmlns="http://www.w3.org/2000/svg" width="24" height="22" viewBox="0 0 24 22" fill="none">
<path fill-rule="evenodd" clip-rule="evenodd" d="M11.5 22L3 17.465V13.512L8.4 16.634L11.5 13.228V22ZM12.5 21.999V13.193L15.662 16.536L21 13.578V17.465L12.5 21.999ZM2.161 11.874L0 10.63L3 7.328L0 4.505L8.718 0L11.933 2.385L15.258 0L24 4.561L21.005 7.332L24 10.775L21.758 12.016L15.855 15.285L12.507 11.744L19.923 7.782L12.001 3.41L4.078 7.782L11.5 11.719V11.743L8.203 15.365L3 12.357L2.84 12.265L2.161 11.872V11.874Z" fill="#D24545"/>
</svg>